
<svg width="65px" height="65px" viewBox="0 0 65 65" version="1.1" xmlns="http://www.w3.org/2000/svg" xmlns:xlink="http://www.w3.org/1999/xlink">
    <g id="Page-1" stroke="none" stroke-width="1" fill="none" fill-rule="evenodd">
        <g id="J0209-10" transform="translate(-574.000000, -108.000000)" fill="#FFFFFF">
            <path d="M594.285,124.324 C598.623,119.61 602.084,114.244 604.568,108.43 C597.907,108.887 591.366,111.419 585.986,116.025 L594.285,124.324" id="Fill-127"></path>
            <path d="M590.738,127.848 L582.451,119.56 C577.872,124.907 575.344,131.401 574.864,138.02 C580.665,135.568 586.023,132.144 590.738,127.848" id="Fill-128"></path>
            <path d="M597.825,127.864 L606.771,136.81 L627.556,116.025 C622.436,111.642 616.265,109.129 609.938,108.504 C607.175,115.632 603.086,122.187 597.825,127.864" id="Fill-129"></path>
            <path d="M631.091,119.56 L610.306,140.346 L618.903,148.942 C624.655,143.422 631.261,139.019 638.457,135.887 C637.636,130.015 635.176,124.331 631.091,119.56" id="Fill-130"></path>
            <path d="M618.965,156.074 C614.631,160.937 611.116,166.398 608.528,172.293 C615.343,171.92 622.056,169.375 627.556,164.665 L618.965,156.074" id="Fill-131"></path>
            <path d="M622.438,152.477 L631.091,161.13 C635.997,155.401 638.55,148.354 638.749,141.249 C632.783,144.066 627.284,147.843 622.438,152.477" id="Fill-132"></path>
            <path d="M615.425,152.534 L606.771,143.881 L585.986,164.665 C590.99,168.95 596.997,171.44 603.174,172.136 C606.065,164.966 610.198,158.349 615.425,152.534" id="Fill-133"></path>
            <path d="M603.236,140.346 L594.278,131.388 C588.593,136.608 582.038,140.659 574.916,143.39 C575.521,149.76 578.039,155.977 582.451,161.13 L603.236,140.346" id="Fill-134"></path>
        </g>
    </g>
</svg>