
<svg width="74px" height="75px" viewBox="0 0 74 75" version="1.1" xmlns="http://www.w3.org/2000/svg" xmlns:xlink="http://www.w3.org/1999/xlink">
    <g id="Page-1" stroke="none" strokeWidth="1" fill="none" fillRule="evenodd">
        <g id="J0209-10" transform="translate(-800.000000, -320.000000)" fill="#FFFFFF">
            <path d="M830.877,388.569 L828.791,375.027 C828.678,374.294 828.245,373.648 827.609,373.267 C826.974,372.884 826.2,372.804 825.5,373.047 L812.449,377.582 C808.588,372.887 806.053,367.063 805.42,360.687 L818.936,353.508 C819.592,353.159 820.059,352.538 820.211,351.811 C820.362,351.086 820.185,350.329 819.724,349.748 L811.256,339.057 C814.964,333.934 820.164,329.96 826.22,327.786 L834.947,338.273 C835.422,338.844 836.126,339.174 836.868,339.174 C836.868,339.174 836.868,339.174 836.869,339.174 C837.61,339.174 838.313,338.845 838.789,338.275 L847.534,327.792 C853.609,329.977 858.822,333.973 862.53,339.124 L855.136,350.063 C854.721,350.679 854.6,351.446 854.806,352.159 C855.012,352.872 855.524,353.456 856.204,353.754 L868.435,359.111 C868.089,366.145 865.433,372.583 861.21,377.678 L848.624,373.071 C847.928,372.816 847.153,372.884 846.511,373.256 C845.869,373.628 845.426,374.267 845.301,374.998 L842.986,388.547 C841.006,388.937 838.962,389.146 836.869,389.146 C834.82,389.146 832.818,388.943 830.877,388.569 Z M836.869,320.935 C816.685,320.935 800.263,337.356 800.263,357.541 C800.263,377.726 816.685,394.146 836.869,394.146 C857.054,394.146 873.475,377.726 873.475,357.541 C873.475,337.356 857.054,320.935 836.869,320.935 L836.869,320.935 Z" id="Fill-140"></path>
            <path d="M846.953,368.816 L851.521,354.756 C851.855,353.726 851.489,352.598 850.613,351.961 L838.653,343.271 C837.776,342.635 836.591,342.635 835.714,343.271 L823.754,351.961 C822.878,352.598 822.512,353.726 822.846,354.756 L827.414,368.816 C827.749,369.847 828.709,370.544 829.792,370.544 L844.575,370.544 C845.658,370.544 846.618,369.847 846.953,368.816" id="Fill-141"></path>
        </g>
    </g>
</svg>